<?xml version="1.0" encoding="UTF-8"?>
<svg width="30px" height="30px" viewBox="0 0 30 30" version="1.1" xmlns="http://www.w3.org/2000/svg" xmlns:xlink="http://www.w3.org/1999/xlink">
    <!-- Generator: Sketch 50.2 (55047) - http://www.bohemiancoding.com/sketch -->
    <title>answer</title>
    <desc>Created with Sketch.</desc>
    <defs>
        <polygon id="path-1" points="0.00435571688 0.0432847363 20.6752087 0.0432847363 20.6752087 19.5830553 0.00435571688 19.5830553"></polygon>
    </defs>
    <g id="Page-1" stroke="none" stroke-width="1" fill="none" fill-rule="evenodd">
        <g id="Artboard" transform="translate(-10.000000, -20.000000)">
            <g id="answer" transform="translate(10.000000, 20.000000)">
                <g id="Group-3" transform="translate(0.000000, 10.344828)">
                    <mask id="mask-2" fill="white">
                        <use xlink:href="#path-1"></use>
                    </mask>
                    <g id="Clip-2"></g>
                    <path d="M20.0944465,8.42563768 C19.7737205,8.42563768 19.5136842,8.68447896 19.5136842,9.00373098 L19.5136842,12.9925025 C19.5136842,14.5865226 18.2108893,15.8829691 16.609873,15.8829691 L10.3394555,15.8829691 C10.0187296,15.8829691 9.75898367,16.1415936 9.75869328,16.4608456 L9.75782214,17.6102396 L8.37168784,16.2304754 C8.28210526,16.0252523 8.07651543,15.8829691 7.83912886,15.8829691 L4.06533575,15.8829691 C2.46424682,15.8829691 1.1615245,14.5865226 1.1615245,12.9925025 L1.1615245,4.08993788 C1.1615245,2.49627916 2.46424682,1.19947135 4.06533575,1.19947135 L9.93110708,1.19947135 C10.251833,1.19947135 10.5118693,0.940630071 10.5118693,0.621378043 C10.5118693,0.302126014 10.251833,0.0432847363 9.93110708,0.0432847363 L4.06533575,0.0432847363 C1.82366606,0.0432847363 0,1.85856998 0,4.08993788 L0,12.9925025 C0,15.2238704 1.82366606,17.0391557 4.06533575,17.0391557 L7.54170599,17.0391557 L9.92682396,19.4136739 C10.0379673,19.5243065 10.1865699,19.5830553 10.3377132,19.5830553 C10.4123412,19.5830553 10.4877677,19.5686029 10.5594918,19.5389757 C10.7766969,19.4495157 10.9181851,19.2389452 10.9181851,19.0051788 L10.919637,17.0391557 L16.609873,17.0391557 C18.8515426,17.0391557 20.6752087,15.2238704 20.6752087,12.9925025 L20.6752087,9.00373098 C20.6752087,8.68447896 20.4151724,8.42563768 20.0944465,8.42563768 Z" id="Fill-1" fill="#53587F" mask="url(#mask-2)"></path>
                </g>
                <path d="M21.4352532,0 L19.9439835,0 C15.2212855,0 11.3793103,3.82459458 11.3793103,8.5259276 C11.3793103,13.2270406 15.2212855,17.0519285 19.9436888,17.0519285 L21.4352532,17.0519285 C22.1724175,17.0519285 22.901774,16.9585134 23.6090334,16.7743961 L25.8121292,18.9663522 C25.9246042,19.0783184 26.0753811,19.137931 26.228736,19.137931 C26.3047505,19.137931 26.3812807,19.1233395 26.4540543,19.0932765 C26.6744375,19.0024278 26.8177014,18.7884675 26.8177014,18.5513368 L26.8177014,15.1575224 C27.7505,14.4056552 28.5253769,13.4555924 29.0691902,12.3946634 C29.686661,11.1894322 30,9.88763285 30,8.5259276 C30,3.82459458 26.1577302,0 21.4352532,0 Z M25.8740015,14.4030888 C25.7263919,14.5135885 25.6391814,14.6872204 25.6391814,14.871631 L25.6391814,17.1358115 L24.1974095,15.7011486 C24.0852291,15.5894024 23.9347468,15.5292765 23.7808026,15.5292765 C23.7229815,15.5292765 23.6645711,15.5378554 23.6078548,15.5553799 C22.9064145,15.7698534 22.1752901,15.87874 21.4352532,15.87874 L19.9439835,15.87874 C15.8709447,15.87874 12.5578303,12.5802472 12.5578303,8.5259276 C12.5578303,4.47160805 15.8712393,1.17318852 19.9439835,1.17318852 L21.4352532,1.17318852 C25.5079974,1.17318852 28.82148,4.47160805 28.82148,8.5259276 C28.82148,10.8565399 27.7471117,12.9987088 25.8740015,14.4030888 Z" id="Fill-4" fill="#53587F"></path>
                <path d="M23.7867378,6.40541781 C23.6983934,5.19941486 22.6675814,4.22718031 21.3889163,4.14392823 C20.6638355,4.09690088 19.9718933,4.32764455 19.4424377,4.79402906 C18.9201596,5.25371596 18.6206897,5.9038168 18.6206897,6.57732328 C18.6206897,6.89549604 18.8941984,7.15346227 19.2315412,7.15346227 C19.568884,7.15346227 19.8423928,6.89549604 19.8423928,6.57732328 C19.8423928,6.21666027 19.9963274,5.88242764 20.2760974,5.63627225 C20.555562,5.39040494 20.9206222,5.26862356 21.3048478,5.2936856 C21.9786171,5.33725612 22.5214351,5.8495157 22.5680126,6.48478095 C22.6148191,7.12645576 22.168592,7.69359258 21.5067343,7.83309023 C20.970483,7.94622953 20.5961073,8.38589559 20.5961073,8.90182806 L20.5961073,10.28593 C20.5961073,10.6041027 20.8696161,10.862069 21.2069589,10.862069 C21.5443017,10.862069 21.8178105,10.6041027 21.8175814,10.28593 L21.8175814,8.9479912 C23.0485237,8.66748353 23.874395,7.60522726 23.7867378,6.40541781 Z" id="Fill-5" fill="#53587F"></path>
                <path d="M21.0554095,12.0481034 C20.9591379,11.9521552 20.8255603,11.8965517 20.6896552,11.8965517 C20.553556,11.8965517 20.4201724,11.9521552 20.3239655,12.0481034 C20.2277586,12.144375 20.1724138,12.2779526 20.1724138,12.4137931 C20.1724138,12.5504741 20.2277586,12.6837931 20.3239655,12.7800647 C20.4201724,12.8762716 20.553556,12.9310345 20.6896552,12.9310345 C20.8255603,12.9310345 20.9591379,12.8762716 21.0554095,12.7800647 C21.1516164,12.6832759 21.2068966,12.5504741 21.2068966,12.4137931 C21.2068966,12.2779526 21.1513578,12.144375 21.0554095,12.0481034 Z" id="Fill-6" fill="#53587F"></path>
                <path d="M15.9695508,18.1034483 L3.68562157,18.1034483 C3.36411637,18.1034483 3.10344828,18.3350431 3.10344828,18.6206897 C3.10344828,18.9063362 3.36411637,19.137931 3.68562157,19.137931 L15.9695508,19.137931 C16.291056,19.137931 16.5517241,18.9063362 16.5517241,18.6206897 C16.5517241,18.3350431 16.291056,18.1034483 15.9695508,18.1034483 Z" id="Fill-7" fill="#53587F"></path>
                <path d="M16.4001724,21.3584483 C16.3039655,21.2621767 16.1705819,21.2068966 16.0344828,21.2068966 C15.8983836,21.2068966 15.765,21.2621767 15.6687931,21.3584483 C15.5725216,21.4546552 15.5172414,21.5879741 15.5172414,21.7241379 C15.5172414,21.8599784 15.5725216,21.9936207 15.6687931,22.0898276 C15.765,22.1860345 15.8983836,22.2413793 16.0344828,22.2413793 C16.1705819,22.2413793 16.3039655,22.1860345 16.4001724,22.0898276 C16.496444,21.9936207 16.5517241,21.8604957 16.5517241,21.7241379 C16.5517241,21.5879741 16.496444,21.4546552 16.4001724,21.3584483 Z" id="Fill-8" fill="#53587F"></path>
                <path d="M13.8890658,21.2068966 L3.6971411,21.2068966 C3.36927424,21.2068966 3.10344828,21.4384914 3.10344828,21.7241379 C3.10344828,22.0097845 3.36927424,22.2413793 3.6971411,22.2413793 L13.8890658,22.2413793 C14.2169327,22.2413793 14.4827586,22.0097845 14.4827586,21.7241379 C14.4827586,21.4384914 14.2169327,21.2068966 13.8890658,21.2068966 Z" id="Fill-9" fill="#53587F"></path>
                <path d="M12.3390157,15 L3.69546708,15 C3.3685247,15 3.10344828,15.2315948 3.10344828,15.5172414 C3.10344828,15.8028879 3.3685247,16.0344828 3.69546708,16.0344828 L12.3390157,16.0344828 C12.6659581,16.0344828 12.9310345,15.8028879 12.9310345,15.5172414 C12.9310345,15.2315948 12.6659581,15 12.3390157,15 Z" id="Fill-10" fill="#53587F"></path>
            </g>
        </g>
    </g>
</svg>