<?xml version="1.0" encoding="UTF-8"?>
<svg width="25px" height="30px" viewBox="0 0 25 30" version="1.1" xmlns="http://www.w3.org/2000/svg" xmlns:xlink="http://www.w3.org/1999/xlink">
    <!-- Generator: Sketch 50.2 (55047) - http://www.bohemiancoding.com/sketch -->
    <title>thematic</title>
    <desc>Created with Sketch.</desc>
    <defs>
        <polygon id="path-1" points="0.00344827586 0 20.3448276 0 20.3448276 24.8161765 0.00344827586 24.8161765"></polygon>
    </defs>
    <g id="Pictogrammes" stroke="none" stroke-width="1" fill="none" fill-rule="evenodd">
        <g id="Artboard" transform="translate(-75.000000, -72.000000)">
            <g id="thematic" transform="translate(75.000000, 72.000000)">
                <g id="Group-4">
                    <mask id="mask-2" fill="white">
                        <use xlink:href="#path-1"></use>
                    </mask>
                    <g id="Clip-2"></g>
                    <path d="M18.6206897,24.8161765 L1.72413793,24.8161765 C0.773448276,24.8161765 0,24.0430836 0,23.0928309 L0,12.4272174 C0,12.1099494 0.257356322,11.8527688 0.574712644,11.8527688 C0.892068966,11.8527688 1.14942529,12.1099494 1.14942529,12.4272174 L1.14942529,23.0928309 C1.14942529,23.4095818 1.40724138,23.6672794 1.72413793,23.6672794 L18.6206897,23.6672794 C18.9375862,23.6672794 19.1954023,23.4095818 19.1954023,23.0928309 L19.1954023,1.72334559 C19.1954023,1.40659467 18.9375862,1.14889706 18.6206897,1.14889706 L1.72413793,1.14889706 C1.40724138,1.14889706 1.14942529,1.40659467 1.14942529,1.72334559 L1.14942529,7.58272059 C1.14942529,7.89998851 0.892068966,8.15716912 0.574712644,8.15716912 C0.257356322,8.15716912 0,7.89998851 0,7.58272059 L0,1.72334559 C0,0.773092831 0.773448276,0 1.72413793,0 L18.6206897,0 C19.5713793,0 20.3448276,0.773092831 20.3448276,1.72334559 L20.3448276,23.0928309 C20.3448276,24.0430836 19.5713793,24.8161765 18.6206897,24.8161765" id="Fill-1" fill="#53587F" mask="url(#mask-2)"></path>
                    <path d="M0.574712644,10.7295496 C0.423563218,10.7295496 0.275287356,10.6680836 0.168390805,10.5612362 C0.0614942529,10.4538143 0,10.3061811 0,10.1545267 C0,10.0040211 0.0614367816,9.85581342 0.168390805,9.74839154 C0.275287356,9.64154412 0.423563218,9.58065257 0.574712644,9.58065257 C0.725862069,9.58065257 0.874137931,9.64154412 0.980977011,9.74839154 C1.08787356,9.85581342 1.14942529,10.0034467 1.14942529,10.1545267 C1.14942529,10.3061811 1.08793103,10.4543888 0.980977011,10.5612362 C0.87408046,10.6680836 0.725804598,10.7295496 0.574712644,10.7295496" id="Fill-3" fill="#53587F" mask="url(#mask-2)"></path>
                </g>
                <path d="M2.87695402,27.1174173 C2.7258046,27.1174173 2.57752874,27.0565257 2.47068966,26.9491039 C2.3637931,26.8422564 2.30224138,26.6946232 2.30224138,26.5429688 C2.30224138,26.3918888 2.36373563,26.2436811 2.47068966,26.1368336 C2.57752874,26.0299862 2.7258046,25.9685202 2.87695402,25.9685202 C3.02873563,25.9685202 3.17637931,26.0299862 3.28327586,26.1368336 C3.39017241,26.2436811 3.45166667,26.3918888 3.45166667,26.5429688 C3.45166667,26.6946232 3.39022989,26.8422564 3.28327586,26.9491039 C3.17637931,27.0565257 3.02873563,27.1174173 2.87695402,27.1174173" id="Fill-5" fill="#53587F"></path>
                <path d="M20.9231609,27.1175896 L5.17603448,27.1175896 C4.85867816,27.1175896 4.60132184,26.860409 4.60132184,26.5431411 C4.60132184,26.2258732 4.85867816,25.9686926 5.17603448,25.9686926 L20.9231609,25.9686926 C21.2400575,25.9686926 21.4978736,25.7109949 21.4978736,25.394244 L21.4978736,2.87586167 C21.4978736,2.55859375 21.7552299,2.30141314 22.0725862,2.30141314 C22.3899425,2.30141314 22.6472989,2.55859375 22.6472989,2.87586167 L22.6472989,25.394244 C22.6472989,26.3444968 21.8738506,27.1175896 20.9231609,27.1175896" id="Fill-6" fill="#53587F"></path>
                <path d="M23.2256322,29.4117647 L5.17965517,29.4117647 C4.86229885,29.4117647 4.60494253,29.1545841 4.60494253,28.8373162 C4.60494253,28.5200483 4.86229885,28.2628676 5.17965517,28.2628676 L23.2256322,28.2628676 C23.5425287,28.2628676 23.8003448,28.00517 23.8003448,27.6884191 L23.8003448,5.17003676 C23.8003448,4.85276884 24.0577011,4.59558824 24.3750575,4.59558824 C24.6924138,4.59558824 24.9497701,4.85276884 24.9497701,5.17003676 L24.9497701,27.6884191 C24.9497701,28.6386719 24.1763218,29.4117647 23.2256322,29.4117647" id="Fill-7" fill="#53587F"></path>
                <path d="M4.36781609,9.765625 L8.73563218,9.765625 L8.73563218,5.39981618 L4.36781609,5.39981618 L4.36781609,9.765625 Z M9.31034483,10.9145221 L3.79310345,10.9145221 C3.47574713,10.9145221 3.2183908,10.6573415 3.2183908,10.3400735 L3.2183908,4.82536765 C3.2183908,4.50809972 3.47574713,4.25091912 3.79310345,4.25091912 L9.31034483,4.25091912 C9.62770115,4.25091912 9.88505747,4.50809972 9.88505747,4.82536765 L9.88505747,10.3400735 C9.88505747,10.6573415 9.62770115,10.9145221 9.31034483,10.9145221 Z" id="Fill-8" fill="#53587F"></path>
                <path d="M5.12057471,16.4365234 C4.96816092,16.4365234 4.82201149,16.3759766 4.7141954,16.2682675 L3.59741379,15.1519991 C3.37298851,14.9276769 3.37298851,14.5639361 3.59741379,14.339614 C3.82201149,14.1153493 4.1858046,14.1152918 4.41022989,14.339614 L5.12057471,15.0496898 L6.64833333,13.5226333 C6.87287356,13.2983111 7.23666667,13.2983686 7.46114943,13.5226333 C7.68557471,13.7469554 7.68557471,14.1106962 7.46114943,14.3350184 L5.52701149,16.2682675 C5.41913793,16.3759766 5.27304598,16.4365234 5.12057471,16.4365234" id="Fill-9" fill="#53587F"></path>
                <path d="M16.8774138,15.4526654 L10.1724138,15.4526654 C9.85505747,15.4526654 9.59770115,15.1954848 9.59770115,14.8782169 C9.59770115,14.560949 9.85505747,14.3037684 10.1724138,14.3037684 L16.8774138,14.3037684 C17.1947701,14.3037684 17.4521264,14.560949 17.4521264,14.8782169 C17.4521264,15.1954848 17.1947701,15.4526654 16.8774138,15.4526654" id="Fill-10" fill="#53587F"></path>
                <path d="M16.5517241,5.39981618 L12.5287356,5.39981618 C12.2113793,5.39981618 11.954023,5.14263557 11.954023,4.82536765 C11.954023,4.50809972 12.2113793,4.25091912 12.5287356,4.25091912 L16.5517241,4.25091912 C16.8690805,4.25091912 17.1264368,4.50809972 17.1264368,4.82536765 C17.1264368,5.14263557 16.8690805,5.39981618 16.5517241,5.39981618" id="Fill-11" fill="#53587F"></path>
                <path d="M16.5517241,8.15716912 L12.5287356,8.15716912 C12.2113793,8.15716912 11.954023,7.89998851 11.954023,7.58272059 C11.954023,7.26545267 12.2113793,7.00827206 12.5287356,7.00827206 L16.5517241,7.00827206 C16.8690805,7.00827206 17.1264368,7.26545267 17.1264368,7.58272059 C17.1264368,7.89998851 16.8690805,8.15716912 16.5517241,8.15716912" id="Fill-12" fill="#53587F"></path>
                <path d="M16.5517241,10.9145221 L12.5287356,10.9145221 C12.2113793,10.9145221 11.954023,10.6573415 11.954023,10.3400735 C11.954023,10.0228056 12.2113793,9.765625 12.5287356,9.765625 L16.5517241,9.765625 C16.8690805,9.765625 17.1264368,10.0228056 17.1264368,10.3400735 C17.1264368,10.6573415 16.8690805,10.9145221 16.5517241,10.9145221" id="Fill-13" fill="#53587F"></path>
                <path d="M5.12057471,20.8234145 C4.96816092,20.8234145 4.82201149,20.7628676 4.7141954,20.6551585 L3.59741379,19.5388902 C3.37298851,19.314568 3.37298851,18.9508272 3.59741379,18.7265051 C3.82201149,18.5022403 4.1858046,18.5021829 4.41022989,18.7265051 L5.12057471,19.4365809 L6.64833333,17.9095244 C6.87287356,17.6852022 7.23666667,17.6852597 7.46114943,17.9095244 C7.68557471,18.1338465 7.68557471,18.4975873 7.46114943,18.7219095 L5.52701149,20.6551585 C5.41913793,20.7628676 5.27304598,20.8234145 5.12057471,20.8234145" id="Fill-14" fill="#53587F"></path>
                <path d="M16.8774138,19.8184743 L10.1724138,19.8184743 C9.85505747,19.8184743 9.59770115,19.5612937 9.59770115,19.2440257 C9.59770115,18.9267578 9.85505747,18.6695772 10.1724138,18.6695772 L16.8774138,18.6695772 C17.1947701,18.6695772 17.4521264,18.9267578 17.4521264,19.2440257 C17.4521264,19.5612937 17.1947701,19.8184743 16.8774138,19.8184743" id="Fill-15" fill="#53587F"></path>
            </g>
        </g>
    </g>
</svg>